<svg width="512" height="512" viewBox="0 0 512 512" fill="none" xmlns="http://www.w3.org/2000/svg">
<rect width="512" height="512" rx="128" fill="white"/>
<path d="M198.8 331.2C187.6 331.2 177.2 329.467 167.6 326C158.133 322.4 149.867 317.333 142.8 310.8C135.867 304.267 130.467 296.533 126.6 287.6C122.733 278.667 120.8 268.8 120.8 258C120.8 247.2 122.733 237.333 126.6 228.4C130.467 219.467 135.867 211.733 142.8 205.2C149.867 198.667 158.133 193.667 167.6 190.2C177.2 186.6 187.6 184.8 198.8 184.8C212.533 184.8 224.667 187.2 235.2 192C245.867 196.8 254.667 203.733 261.6 212.8L231.8 239.4C227.667 234.2 223.067 230.2 218 227.4C213.067 224.467 207.467 223 201.2 223C196.267 223 191.8 223.8 187.8 225.4C183.8 227 180.333 229.333 177.4 232.4C174.6 235.467 172.4 239.2 170.8 243.6C169.2 247.867 168.4 252.667 168.4 258C168.4 263.333 169.2 268.2 170.8 272.6C172.4 276.867 174.6 280.533 177.4 283.6C180.333 286.667 183.8 289 187.8 290.6C191.8 292.2 196.267 293 201.2 293C207.467 293 213.067 291.6 218 288.8C223.067 285.867 227.667 281.8 231.8 276.6L261.6 303.2C254.667 312.133 245.867 319.067 235.2 324C224.667 328.8 212.533 331.2 198.8 331.2ZM319.228 328L260.028 188H310.828L359.028 306.2H328.828L378.428 188H424.828L365.628 328H319.228Z" fill="black"/>
</svg>
