<svg width="40" height="40" viewBox="0 0 40 40" fill="none" xmlns="http://www.w3.org/2000/svg">
<path fill-rule="evenodd" clip-rule="evenodd" d="M20 0C8.95431 0 0 8.95431 0 20C0 31.0457 8.95431 40 20 40C31.0457 40 40 31.0457 40 20C40 8.95431 31.0457 0 20 0ZM7.73667 20.1733L7.82333 20.2167V20.2058C7.95333 20.2708 7.99667 20.4225 7.95333 20.5525C7.91 20.7042 7.88833 20.8558 7.88833 21.0075L7.91 21.7658C7.92083 21.8742 7.96417 21.9825 8.05083 22.0692C8.105 22.1342 8.11583 22.2533 8.05083 22.3292L7.9425 22.4592C7.9425 22.5133 7.96417 22.6 8.05083 22.6217C8.15917 22.6542 8.2675 22.73 8.37583 22.8383L8.4625 22.9467C8.5275 23.0767 8.48417 23.2175 8.37583 23.2933L8.3 23.3475C8.09417 23.4667 7.99667 23.7158 8.06167 23.965C8.12667 24.2467 8.18083 24.5283 8.2025 24.81L8.235 25.2C8.235 25.3733 8.32167 25.5358 8.45167 25.6658C8.58167 25.785 8.63583 25.9475 8.63583 26.1317L8.61417 26.6083C8.61417 26.825 8.70083 27.0308 8.8525 27.1717C9.015 27.3125 9.19917 27.4208 9.44833 27.4967C9.65417 27.5508 9.80583 27.7458 9.8275 27.9625V28.0492C9.83833 28.2442 9.8925 28.4283 9.97917 28.5908C10.0658 28.7642 10.1742 28.905 10.3908 29.0567C10.5858 29.1867 10.8025 29.2733 11.0192 29.3167L11.3225 29.3817C11.5608 29.425 11.7558 29.5658 11.8858 29.75C12.0483 29.9558 12.2217 30.1183 12.4817 30.2267C12.7417 30.3458 13.0017 30.3892 13.2833 30.3675H13.435C13.4626 30.3623 13.4901 30.3574 13.5179 30.3525C13.6646 30.3265 13.8161 30.2996 13.9983 30.2267C14.1067 30.1833 14.2258 30.2267 14.2908 30.335C14.3667 30.4433 14.475 30.53 14.5833 30.5517L14.8325 30.6058C14.857 30.6099 14.8784 30.6155 14.899 30.6209C14.9332 30.6299 14.9653 30.6383 15.0058 30.6383L15.6558 30.7467C15.8617 30.7683 16.0567 30.855 16.2192 30.9633L16.36 31.0717L16.5983 31.245L16.75 31.375L17.1833 31.7867C17.3133 31.9492 17.5083 32.025 17.725 32.0575H18.0717C18.2233 32.0792 18.3425 32.1658 18.3967 32.2742C18.4725 32.3933 18.5917 32.48 18.7217 32.5233L19.0142 32.5883C19.2092 32.6425 19.4042 32.6642 19.6208 32.6425L19.7617 32.6208C19.87 32.61 19.9783 32.6317 20.0867 32.6858C20.1733 32.74 20.2817 32.7942 20.39 32.7942L20.5633 32.8483C20.7908 32.9025 21.0292 32.9025 21.2458 32.8483L21.5708 32.74C21.7117 32.6967 21.8417 32.61 21.95 32.4583C22.015 32.35 22.1667 32.3067 22.275 32.35C22.4158 32.415 22.5567 32.4583 22.7083 32.4583L22.8817 32.48C23.1092 32.4908 23.3583 32.4692 23.575 32.415C23.7917 32.35 23.9542 32.22 24.0625 32.025L24.2033 31.7867L24.2683 31.6567L24.3333 31.5483C24.4092 31.44 24.5175 31.375 24.6258 31.375H24.7775C25.005 31.375 25.2325 31.3533 25.4925 31.2667C25.7092 31.2125 25.8933 31.0717 26.0342 30.8875L26.0775 30.8225C26.1444 30.7355 26.2031 30.6402 26.2637 30.5418C26.3012 30.4809 26.3394 30.4188 26.3808 30.3567L26.435 30.2917C26.4783 30.1833 26.5217 30.0642 26.5433 29.9342C26.5542 29.815 26.5758 29.6742 26.6083 29.5658C26.6408 29.4358 26.7383 29.3492 26.9333 29.3492C27.0958 29.3492 27.28 29.2625 27.4208 29.1542L27.4967 29.0892C27.6375 28.9483 27.7675 28.7858 27.8975 28.5692C27.9625 28.4608 28.1033 28.3958 28.2442 28.4608C28.3525 28.5042 28.4608 28.4175 28.4825 28.2875C28.5258 28.1358 28.5908 28.0058 28.6992 27.8975C28.7967 27.7892 28.8725 27.67 28.9483 27.4967C29.0133 27.3667 29.1542 27.2583 29.3058 27.2583H29.8908C30.0533 27.2583 30.205 27.15 30.2483 26.955C30.2917 26.8033 30.3783 26.6517 30.4867 26.5217C30.5842 26.4133 30.7142 26.305 30.8658 26.1967C31.0175 26.1317 31.1583 26.0125 31.2667 25.8717L31.4292 25.655C31.4942 25.59 31.5375 25.4817 31.5375 25.3733C31.5375 25.2758 31.5917 25.1783 31.6675 25.135L31.83 25.0267C31.9708 24.9508 32.0792 24.8425 32.155 24.7017C32.22 24.5717 32.285 24.4308 32.3283 24.2683V24.1817C32.3825 23.9867 32.3825 23.77 32.3283 23.5533L32.2958 23.4017C32.2633 23.3042 32.3067 23.1958 32.3717 23.1308C32.405 23.0919 32.4498 23.0558 32.5002 23.0152C32.5479 22.9768 32.6006 22.9344 32.6533 22.8817C32.7617 22.7842 32.8483 22.665 32.9025 22.535L32.9242 22.4592C33 22.2858 33.0217 22.0692 32.9783 21.8525C32.9567 21.6683 32.9025 21.495 32.8158 21.3433C32.74 21.1808 32.7292 20.9967 32.7833 20.8017C32.8483 20.6175 32.87 20.4117 32.87 20.2167V20.13C32.87 19.8808 32.8375 19.6317 32.7292 19.3933C32.6425 19.1442 32.4908 18.96 32.2742 18.8192L32.0575 18.6567C31.9925 18.6133 31.9383 18.5375 31.9167 18.4617C31.8842 18.375 31.8842 18.2883 31.8842 18.2017V17.9525C31.8842 17.7358 31.8733 17.5192 31.83 17.2483C31.8083 17.075 31.7217 16.9017 31.57 16.7933C31.4617 16.685 31.3533 16.5333 31.3533 16.36L31.3208 16.1108C31.3208 15.9808 31.3642 15.8725 31.4292 15.7858C31.5158 15.6992 31.5375 15.5692 31.5375 15.4608V15.2442C31.5267 15.0817 31.4508 14.9408 31.2883 14.8325C31.1908 14.7567 31.1367 14.6158 31.1583 14.5075L31.18 14.2908L31.2558 13.7817C31.2775 13.5975 31.2017 13.435 31.0608 13.3267L30.9525 13.2508C30.8767 13.2075 30.8442 13.1208 30.8442 13.0125C30.855 12.9258 30.8442 12.8175 30.8008 12.7092L30.5192 12.0808L30.4108 11.8642C30.335 11.7233 30.205 11.615 30.0533 11.615L29.8367 11.5933C29.6633 11.5933 29.5333 11.4417 29.5333 11.2683C29.5442 11.0517 29.4792 10.8458 29.3492 10.6942L29.2408 10.5533C29.1325 10.445 29.0133 10.3367 28.8725 10.2283C28.7425 10.1525 28.58 10.12 28.4175 10.12H27.7458C27.5942 10.12 27.4425 10.0442 27.3775 9.90333C27.2692 9.75167 27.1608 9.61083 27.0525 9.5025L26.9983 9.44833C26.8683 9.28583 26.6517 9.1775 26.435 9.15583L25.9692 9.08C25.72 9.0475 25.4708 9.08 25.2325 9.15583C25.005 9.2425 24.7558 9.22083 24.5175 9.1125C24.2683 9.00417 24.0192 8.96083 23.7592 8.96083H23.12C22.9683 8.97167 22.8167 8.92833 22.7083 8.82L22.6 8.71167C22.4483 8.60333 22.3183 8.44083 22.21 8.27833C22.1017 8.12667 21.9392 8.0075 21.755 7.95333L21.5817 7.89917C21.4083 7.845 21.2783 7.6825 21.2567 7.46583C21.2458 7.43333 21.235 7.41167 21.2025 7.39C21.1592 7.34667 21.0833 7.3575 21.0508 7.41167C20.9425 7.54167 20.78 7.60667 20.6175 7.56333L20.455 7.52C20.2167 7.46583 19.9783 7.43333 19.74 7.43333H19.6317C19.4475 7.43333 19.285 7.39 19.09 7.28167C18.96 7.21667 18.8192 7.1625 18.6783 7.14083C18.5375 7.11917 18.4075 7.1625 18.2992 7.27083L17.8333 7.75833L17.7358 7.8125C17.6817 7.88833 17.5733 7.91 17.465 7.86667L17.3567 7.8125C17.1833 7.73667 17.01 7.6825 16.7933 7.6825L16.36 7.65C16.23 7.63917 16.0783 7.66083 15.97 7.69333C15.84 7.72583 15.7317 7.80167 15.6233 7.91L15.4067 8.17C15.2983 8.3 15.1683 8.40833 15.0275 8.495L14.7892 8.63583L13.9658 9.10167C13.7167 9.26417 13.5325 9.51333 13.4567 9.86C13.4025 10.1417 13.2292 10.3583 12.9475 10.51C12.7308 10.6183 12.5467 10.7592 12.3842 10.9433C12.2325 11.1058 12.1242 11.3442 12.0808 11.6475C12.0375 11.8967 11.8425 12.0592 11.6042 12.0592H11.2575C11.0733 12.0592 10.8783 12.0808 10.64 12.1675C10.5317 12.2217 10.38 12.1567 10.315 12.0267L10.2717 11.9508C10.2283 11.8642 10.1308 11.81 9.99 11.81C9.93583 11.8317 9.91417 11.9075 9.93583 11.9725L10.0658 12.2542C10.1308 12.4058 10.0875 12.6008 9.97917 12.7092L9.58917 13.1425L9.44833 13.3267C9.3725 13.4133 9.26417 13.435 9.09083 13.37C9.03667 13.3808 9.015 13.4133 9.03667 13.5217C9.0475 13.5867 9.03667 13.6733 8.9825 13.7383C8.93917 13.825 8.885 13.8792 8.83083 13.9333L8.57083 14.1283C8.35417 14.3233 8.21333 14.5942 8.21333 14.8867L8.19167 15.255C8.18083 15.385 8.105 15.4933 7.99667 15.5258C7.86667 15.5692 7.7475 15.6342 7.67167 15.7425L7.56333 15.8833C7.41167 16.0567 7.34667 16.295 7.34667 16.5333L7.37917 16.6633C7.37917 16.88 7.4225 17.0967 7.4875 17.3133L7.54167 17.4867C7.56333 17.5733 7.5525 17.6708 7.4875 17.7467C7.47306 17.7669 7.45786 17.7871 7.4425 17.8075C7.40022 17.8637 7.35678 17.9214 7.325 17.985L7.23833 18.1475C7.14083 18.3317 7.08667 18.5267 7.08667 18.7433L7.065 18.8842C7.065 19.155 7.13 19.415 7.28167 19.6967C7.39 19.9025 7.54167 20.065 7.73667 20.1733ZM18.5483 18.5158C18.6133 18.57 18.6242 18.7108 18.5483 18.7867L18.5592 18.7975L18.4833 18.8842C18.3858 19.0033 18.2125 19.0142 18.1042 18.9275L18.0825 18.9058C17.9417 18.765 17.7683 18.6675 17.5842 18.6133L17.2808 18.5267C17.0858 18.4942 16.9125 18.375 16.8042 18.2017C16.6958 18.0283 16.5225 17.92 16.3275 17.92H16.2625C16.0458 17.8983 15.8508 17.7575 15.7642 17.5192L15.71 17.3458C15.6233 17.1292 15.4717 16.9342 15.2767 16.8042C15.0817 16.6958 14.9625 16.4792 14.93 16.2625V16.0675C14.8867 15.8292 14.7783 15.6342 14.605 15.5042C14.4208 15.3742 14.345 15.1575 14.3883 14.9408L14.4425 14.7242C14.4858 14.5725 14.5833 14.4533 14.735 14.3992C14.8433 14.3558 14.9517 14.2258 14.9517 14.0742V13.5C14.9625 13.3592 14.93 13.2183 14.8758 13.0883C14.8217 12.9692 14.8433 12.8283 14.93 12.72L14.9842 12.6333C15.1142 12.4817 15.1792 12.265 15.2008 12.0483V11.94C15.2225 11.68 15.3308 11.4525 15.5475 11.3117C15.775 11.1708 15.9592 10.9758 16.0675 10.7375L16.1542 10.5967C16.2625 10.3583 16.4575 10.185 16.6958 10.1092L17.0208 10.0008L17.1292 9.96833L17.5192 9.86C17.6492 9.81667 17.7575 9.68667 17.7575 9.535C17.7683 9.38333 17.8767 9.275 18.0175 9.275L18.9383 9.16667C19.0242 9.16667 19.1113 9.1643 19.1991 9.16192C19.3772 9.15708 19.5586 9.15216 19.74 9.16667L20.2167 9.19917C20.39 9.21 20.4983 9.3725 20.4983 9.55667C20.4983 9.58917 20.4875 9.6325 20.4658 9.665L20.39 9.80583C20.3295 9.94196 20.2479 10.0728 20.1673 10.202C20.1324 10.258 20.0977 10.3136 20.065 10.3692L20.0108 10.4233C19.9133 10.5642 19.8592 10.7158 19.8592 10.8892C19.8592 11.03 19.7725 11.1708 19.6425 11.2142L19.35 11.3225C19.1117 11.3983 18.9058 11.5392 18.7433 11.7558L18.7 11.7992C18.5592 11.9725 18.4833 12.1892 18.4508 12.4058L18.4292 12.5575C18.4075 12.6658 18.44 12.7742 18.4942 12.8825C18.5483 12.9692 18.5375 13.0775 18.4725 13.1425L18.4075 13.2075L18.2992 13.3375L18.1475 13.5C18.0175 13.6517 17.92 13.825 17.855 14.02L17.7792 14.2367C17.7358 14.3667 17.7575 14.475 17.8225 14.5833C17.8875 14.6917 17.9092 14.8325 17.8658 14.9408V14.9625C17.8333 15.125 17.7683 15.255 17.6817 15.3958C17.595 15.5042 17.5625 15.645 17.595 15.775V15.84C17.6167 15.9483 17.66 16.0567 17.7033 16.1433C17.7683 16.2517 17.8117 16.36 17.8117 16.4683V16.5117C17.8117 16.6417 17.7683 16.7933 17.7033 16.9017L17.6383 17.01C17.5842 17.1183 17.5842 17.2267 17.6383 17.335C17.7033 17.465 17.7792 17.5733 17.8875 17.66L17.9092 17.6817C18.0175 17.79 18.115 17.9092 18.1908 18.05L18.2992 18.2233C18.3642 18.3317 18.44 18.4292 18.5483 18.5158ZM20.0433 17.725C20 17.8225 19.8917 17.855 19.7833 17.79L19.7617 17.7683L19.74 17.7467C19.6533 17.7033 19.5883 17.595 19.5883 17.4867C19.5775 17.3783 19.5992 17.27 19.6317 17.1617C19.6642 17.0317 19.6533 16.9233 19.5992 16.815L19.4908 16.5767C19.4475 16.4683 19.4475 16.36 19.5125 16.2517C19.5667 16.1433 19.6208 16.0242 19.6208 15.8942L19.6533 15.5475C19.6642 15.4392 19.6425 15.3308 19.5775 15.2225C19.5233 15.1467 19.5667 15.0492 19.6317 15.0058H19.6533L19.7183 14.9733C19.8592 14.9192 19.9675 14.7892 20.0108 14.6267L20.0542 14.4425C20.0867 14.28 20.1083 14.1175 20.0867 13.9333C20.065 13.8033 20.1733 13.6842 20.2817 13.6625H20.3033H20.4658C20.6283 13.6625 20.7583 13.5758 20.8667 13.4458C20.975 13.305 21.0508 13.1533 21.0833 12.98L21.1267 12.7308C21.17 12.5358 21.3108 12.3842 21.495 12.3517H21.625C21.755 12.3192 21.885 12.3192 22.015 12.3192L22.0583 12.2975C22.1992 12.2975 22.34 12.2433 22.4483 12.135V12.1133C22.5567 12.0375 22.665 11.9617 22.7733 11.9617H22.795C22.9033 11.94 23.0008 11.8858 23.0875 11.81C23.1633 11.7342 23.2717 11.68 23.38 11.68L23.965 11.6475C24.1167 11.6258 24.2683 11.5392 24.3767 11.4308L24.4308 11.3658C24.4958 11.29 24.5825 11.2683 24.6908 11.3117C24.7883 11.355 24.875 11.3983 24.9617 11.4633L25.07 11.5392C25.2108 11.6475 25.3842 11.7233 25.5683 11.7233L25.7417 11.745C25.9583 11.7667 26.175 11.7342 26.3917 11.6583L26.5217 11.615C26.63 11.5825 26.7492 11.6475 26.8033 11.7558C26.8467 11.8858 26.9117 12.0158 26.9875 12.1242L27.0308 12.1783C27.1283 12.3083 27.2692 12.395 27.4317 12.4167H27.8867C28.0383 12.4167 28.1575 12.525 28.2117 12.6658C28.255 12.8283 28.32 12.9908 28.4283 13.0992L28.5367 13.2075C28.645 13.3483 28.7967 13.4458 28.97 13.5H29.0567C29.1433 13.5325 29.1867 13.63 29.165 13.7167V13.7708C29.1108 13.8792 29.1108 13.9875 29.165 14.0958L29.1867 14.15C29.1968 14.1721 29.207 14.1944 29.2173 14.2169C29.2726 14.3381 29.3302 14.4646 29.4033 14.5833L29.4792 14.7567C29.5333 14.8433 29.555 14.9517 29.555 15.06C29.555 15.1358 29.5008 15.19 29.4142 15.19H29.2842C29.1 15.1683 28.9158 15.1142 28.7425 15.06L28.5583 14.9842C28.4175 14.9408 28.2767 14.8975 28.125 14.8975H28.0167C27.9625 14.8975 27.9083 14.93 27.8758 14.9625C27.8433 15.0167 27.7892 15.0383 27.735 15.0383H27.5508C27.3992 15.0383 27.2258 14.9517 27.1175 14.8433L27.085 14.8C26.9442 14.6375 26.76 14.5617 26.5433 14.5292H26.435C26.2183 14.5183 26.0233 14.5183 25.8067 14.5617H25.785C25.59 14.5833 25.4058 14.67 25.2433 14.7783L25.1675 14.8217C25.0592 14.9083 24.9183 14.9192 24.81 14.8433C24.68 14.7675 24.5392 14.7675 24.4092 14.7675L24.1925 14.7892C23.9975 14.8108 23.8025 14.865 23.6292 14.9408L23.5208 14.9842C23.4125 15.0383 23.315 15.1142 23.25 15.2225C23.185 15.3308 23.0767 15.385 22.9467 15.385H22.6217C22.501 15.385 22.3803 15.4037 22.251 15.4237C22.241 15.4252 22.2309 15.4268 22.2208 15.4283C22.1125 15.4825 22.0042 15.5367 21.8958 15.645L21.8417 15.71C21.7117 15.8292 21.6467 15.97 21.6033 16.1217C21.5383 16.2625 21.4192 16.3383 21.2783 16.3383C21.1267 16.3383 20.9967 16.4142 20.8883 16.5225L20.6283 16.8692C20.6175 16.8908 20.6067 16.9125 20.5742 16.9125L20.3575 17.2375C20.2492 17.3675 20.1517 17.5192 20.0758 17.6708L20.0433 17.725ZM28.7425 25.6875C28.6125 25.7742 28.45 25.7308 28.3417 25.6225L28.32 25.6333L28.255 25.525C28.2008 25.4492 28.2008 25.3408 28.255 25.265C28.3092 25.1892 28.3417 25.1025 28.3633 24.9942V24.6692C28.3633 24.4742 28.32 24.29 28.2117 24.1275C28.1033 23.9867 27.9625 23.8675 27.8 23.8025L27.7242 23.7483C27.5833 23.705 27.54 23.5533 27.5833 23.4233C27.6375 23.2717 27.67 23.1092 27.67 22.9467V22.8708C27.67 22.665 27.5942 22.4592 27.4533 22.2967L27.3992 22.2208C27.2908 22.0908 27.15 21.9825 27.0092 21.8958L26.955 21.8742C26.8358 21.8092 26.7058 21.7658 26.5975 21.7442C26.4783 21.7008 26.4025 21.5925 26.4025 21.4842V21.43C26.4025 21.2567 26.3917 21.0942 26.3592 20.9317L26.3267 20.78C26.2942 20.6717 26.24 20.5633 26.1533 20.455C26.0775 20.3467 25.9692 20.2817 25.8608 20.2383L25.785 20.2058C25.6008 20.1517 25.4167 20.13 25.2433 20.13H25.1783C25.07 20.13 24.9617 20.0433 24.9617 19.9133V19.8808C24.9617 19.7725 24.9075 19.6425 24.8533 19.5558C24.7883 19.4475 24.7017 19.3717 24.5933 19.3392L24.485 19.3175C24.3333 19.2633 24.1708 19.2308 24.0083 19.2092C23.8458 19.1875 23.705 19.1442 23.575 19.0358C23.445 18.9275 23.3042 18.8733 23.1417 18.8192C22.99 18.7758 22.8383 18.7758 22.6867 18.7758L22.4158 18.8083C22.3183 18.8192 22.2208 18.7867 22.1558 18.7325C22.08 18.6892 21.9825 18.6567 21.8958 18.6892L21.7333 18.7542C21.6033 18.7867 21.4733 18.7542 21.4083 18.6458C21.3325 18.5375 21.3325 18.4075 21.4083 18.2992L21.5383 18.1692C21.6467 18.0067 21.7983 17.8983 21.9717 17.8442L22.0258 17.8225C22.1667 17.7792 22.3183 17.7142 22.4267 17.6058C22.5458 17.5083 22.6867 17.4542 22.8167 17.4217L23.1092 17.3783C23.2717 17.3458 23.4233 17.2917 23.5642 17.205C23.6725 17.1183 23.835 17.0642 23.9975 17.0642H24.355C24.5067 17.0533 24.6583 17.01 24.7883 16.9233L24.8317 16.8908C24.94 16.8258 25.0483 16.8042 25.1567 16.8042C25.2758 16.8042 25.4058 16.8367 25.5142 16.8908L25.6225 16.9342C25.8067 17.0208 26.0017 17.0425 26.1967 17.0425H26.37C26.435 17.0208 26.5 17.075 26.5 17.1508V17.2158C26.435 17.3458 26.435 17.4975 26.4783 17.6275C26.5108 17.7142 26.5867 17.7575 26.6625 17.7358L26.7275 17.6925L26.8683 17.5408C26.955 17.4542 27.085 17.4325 27.1717 17.4975C27.2908 17.5733 27.4317 17.6275 27.54 17.6492L27.7567 17.6817C27.9192 17.7033 28.0817 17.8117 28.19 17.92C28.3308 18.05 28.4392 18.18 28.5475 18.3317L28.8292 18.6567L29.0458 18.9058L29.1325 19.0142C29.2842 19.1658 29.4575 19.2308 29.6742 19.2308H29.6958C29.8692 19.2308 30.0208 19.3717 30.0208 19.5558V19.5883L29.9992 20.13C29.9992 20.325 30.0317 20.52 30.0858 20.715L30.1183 20.78C30.1508 20.91 30.2592 20.9967 30.3675 21.0508C30.465 21.0508 30.5192 21.1592 30.4975 21.2675L30.4758 21.2892V21.3325C30.4325 21.4408 30.3783 21.5492 30.3025 21.6358C30.2375 21.7442 30.1942 21.8525 30.1942 21.9608L30.2267 22.2858L30.2592 22.5892C30.27 22.6867 30.2917 22.7625 30.335 22.8708L30.3567 22.9142C30.4 23.0225 30.4217 23.1308 30.4 23.2392C30.3783 23.3475 30.335 23.445 30.27 23.5317V23.5533L30.0533 23.835L29.9667 23.9108C29.9125 23.9867 29.8583 24.0733 29.8583 24.1817C29.8583 24.2683 29.8042 24.355 29.7175 24.3767L29.6742 24.3983C29.5658 24.4308 29.5008 24.4958 29.4575 24.5825L29.4142 24.6583L29.3708 24.7667L29.3058 24.875L29.1975 25.2V25.2217C29.1542 25.3625 29.0675 25.4708 28.9592 25.5467L28.7425 25.6875ZM21.3867 20.0758H21.4083L21.4408 20.13C21.5058 20.1517 21.5817 20.195 21.6142 20.26L21.6467 20.3142C21.6467 20.3683 21.7117 20.3683 21.755 20.3683C21.7583 20.3651 21.7635 20.3618 21.7693 20.3582C21.7825 20.3499 21.7983 20.3401 21.7983 20.325L21.8417 20.26C21.885 20.1517 22.015 20.1192 22.1017 20.1517L22.4267 20.3683L22.5675 20.4767C22.7083 20.585 22.7733 20.7583 22.7517 20.9317C22.73 20.9858 22.7733 21.04 22.8383 21.04C22.8708 21.0508 22.8925 21.04 22.9142 21.0075L23.0225 20.8992C23.0875 20.8342 23.1958 20.8342 23.2608 20.9208H23.2825C23.3583 20.9967 23.4667 21.0833 23.575 21.105L23.9217 21.2133L24.095 21.2675C24.16 21.3 24.2033 21.3433 24.2033 21.4083L24.2358 21.5925C24.2683 21.7442 24.3117 21.8958 24.3983 22.0042C24.485 22.1342 24.5933 22.2317 24.7017 22.2967L24.7775 22.3183C24.9292 22.4267 25.0375 22.5675 25.0592 22.7517L25.0808 22.9142C25.1025 22.99 25.1025 23.0658 25.1025 23.1308L25.1242 23.3475C25.1458 23.5425 25.2325 23.7375 25.3842 23.8675L25.5683 24.03C25.6767 24.1167 25.6875 24.2683 25.6008 24.3767C25.5142 24.5067 25.4383 24.6475 25.3842 24.7883V24.8425C25.33 25.0267 25.33 25.2108 25.3517 25.3842V25.4275C25.3733 25.5792 25.4275 25.7308 25.5358 25.8392C25.6225 25.9367 25.6225 26.0775 25.5575 26.1858L25.4492 26.3267C25.4198 26.3602 25.3953 26.3922 25.3725 26.4218C25.3365 26.4688 25.3048 26.5101 25.265 26.5433L25.1783 26.6517L24.9617 26.9767C24.8967 27.085 24.8533 27.2258 24.8317 27.3342V28.0383V28.06C24.8425 28.2333 24.7125 28.3958 24.5392 28.4283H24.4525C24.3008 28.4392 24.16 28.4933 24.0192 28.6017C23.9108 28.71 23.8025 28.8292 23.6942 28.97C23.5858 29.1108 23.5208 29.2733 23.4775 29.4358C23.4342 29.5875 23.3042 29.6958 23.1525 29.7175L22.7625 29.75C22.6325 29.75 22.4808 29.7825 22.3725 29.8583L22.2858 29.9125L22.1125 30.0208L21.8417 30.205C21.7658 30.27 21.69 30.3458 21.6575 30.4217C21.6033 30.4867 21.5167 30.5192 21.4408 30.4867L21.3975 30.465C21.2892 30.4 21.17 30.3783 21.04 30.3783H20.9533C20.8017 30.3783 20.6608 30.4 20.52 30.4433L20.4333 30.465C20.3467 30.4975 20.2817 30.5408 20.2167 30.6058C20.1625 30.66 20.0758 30.6817 20.0217 30.66L19.8917 30.6167C19.74 30.5517 19.5667 30.53 19.3825 30.5517L19.22 30.5733C19.0792 30.5842 18.9275 30.5733 18.7867 30.5192H18.765C18.635 30.4867 18.5267 30.4325 18.4183 30.3567C18.31 30.3025 18.18 30.2483 18.0717 30.2483L17.8333 30.205C17.7033 30.205 17.5842 30.1183 17.5083 29.9883C17.4758 29.9233 17.4867 29.8583 17.53 29.815H17.6275L17.985 29.8583L18.375 29.9342C18.5917 29.9667 18.7867 29.9017 18.9167 29.75L19.0792 29.5767L19.2417 29.4142L19.3825 29.2517C19.5342 29.1108 19.61 28.9267 19.6425 28.71L19.6967 28.3525C19.7183 28.2333 19.7833 28.1358 19.8917 28.0925L20.2167 27.93L20.3467 27.8433C20.5417 27.735 20.7042 27.5833 20.8342 27.41H20.8558C20.9858 27.1933 21.0833 26.9767 21.1375 26.76L21.2242 26.37C21.2567 26.2617 21.3325 26.175 21.4408 26.1317C21.5275 26.0883 21.6033 26.0233 21.6575 25.915L21.7333 25.785C21.8417 25.59 21.9067 25.395 21.95 25.1783L21.9933 24.8858C22.0042 24.7775 21.9933 24.6692 21.9608 24.5608V24.5392C21.9283 24.4525 21.8958 24.355 21.8958 24.2683C21.8958 24.1925 21.9283 24.1058 22.0042 24.1058L22.1125 24.0842C22.2425 24.0625 22.3292 23.9433 22.3292 23.8025L22.2967 23.2067C22.2858 23.055 22.2425 22.9033 22.1342 22.7733L22.08 22.7192C22.015 22.6325 21.9933 22.5242 22.015 22.4158V21.8742C22.0042 21.6792 21.9067 21.4842 21.7442 21.3542H21.7008C21.5708 21.2458 21.4842 21.0942 21.4625 20.9208L21.4625 20.9208C21.4408 20.7475 21.4192 20.5742 21.3758 20.4008L21.3325 20.1842C21.3217 20.13 21.3433 20.0758 21.3867 20.0758ZM20.0542 21.105L20.1083 21.1592L20.1192 21.1917L20.1625 21.3217C20.195 21.43 20.2167 21.5708 20.195 21.6792V22.0475L20.2167 22.1992C20.2167 22.3075 20.26 22.4158 20.325 22.5025C20.39 22.5783 20.39 22.7083 20.3467 22.795L20.2383 22.9467C20.1517 23.0767 20.0975 23.2067 20.0433 23.3583C19.9892 23.4992 20 23.6617 20.0758 23.77L20.1083 23.8458C20.195 23.9975 20.1733 24.2142 20.0433 24.3225L20.0217 24.3442C19.8592 24.485 19.7508 24.7017 19.6967 24.9183L19.6317 25.1783C19.5667 25.3733 19.4258 25.5358 19.2417 25.6117L19.1117 25.6658C19.0033 25.7092 18.895 25.7742 18.7867 25.8825C18.6892 25.9908 18.6242 26.1208 18.6242 26.2617L18.5808 26.4783C18.5592 26.695 18.3642 26.89 18.1475 26.9117H17.7142C17.5842 26.9117 17.4433 26.9658 17.335 27.0742L17.01 27.3667L16.945 27.41C16.7933 27.5292 16.6308 27.6158 16.4358 27.6808C16.2733 27.7567 16.0892 27.7783 15.8942 27.7567L15.4933 27.735C15.3525 27.7242 15.2225 27.735 15.0925 27.7892C14.9733 27.8325 14.8325 27.8108 14.7242 27.7025C14.6267 27.605 14.5833 27.475 14.5833 27.3342V27.15C14.605 27.1067 14.5508 27.0633 14.4967 27.0417L14.4425 27.0633C14.3558 27.1067 14.3125 27.215 14.3125 27.3233V27.7025C14.3233 27.8 14.2475 27.8758 14.1608 27.8758H14.0742C13.9117 27.7675 13.7383 27.7133 13.565 27.6592L13.0775 27.5508C12.9367 27.4967 12.8283 27.3667 12.8283 27.2258V27.1717C12.8283 27.1067 12.785 27.0633 12.72 27.0633L12.6658 27.085C12.5792 27.15 12.4492 27.1392 12.3625 27.0633L12.0375 26.76C11.9075 26.6517 11.745 26.5975 11.5825 26.5975C11.4092 26.5975 11.2792 26.5108 11.1925 26.3592L11.03 26.0667C10.9433 25.9258 10.835 25.8175 10.7267 25.7092C10.6999 25.6824 10.6718 25.6557 10.6434 25.6286C10.5568 25.546 10.4669 25.4604 10.4017 25.3625L10.3367 25.2758C10.2608 25.1675 10.25 25.0592 10.3042 24.9508C10.3583 24.8425 10.3692 24.7125 10.3367 24.6042L10.2933 24.3875C10.25 24.2575 10.3367 24.1167 10.4667 24.0842H10.6075C10.7375 24.0842 10.8675 24.1058 10.9758 24.1925C11.0842 24.2575 11.225 24.29 11.3333 24.2575L11.94 24.1058L12.0917 24.0408C12.1458 24.03 12.2 24.0408 12.2325 24.0625L12.5033 24.3875C12.5792 24.4633 12.655 24.5392 12.7633 24.6042C12.7715 24.6087 12.7796 24.6133 12.7877 24.6178C12.8755 24.667 12.9566 24.7125 13.0558 24.7125L13.76 24.7992C13.955 24.8208 14.1608 24.745 14.3017 24.5825L14.41 24.4417C14.475 24.3658 14.5617 24.3333 14.67 24.3658L14.9625 24.4417L15.0708 24.4633C15.255 24.5067 15.4392 24.5067 15.6125 24.485L15.8508 24.4633C16.0133 24.4417 16.1758 24.3333 16.2842 24.1708C16.3925 24.0083 16.5442 23.9 16.7175 23.9L17.2592 23.8458C17.4542 23.8242 17.6492 23.7483 17.7792 23.6075L17.8875 23.5208C17.9742 23.4342 18.0392 23.3258 18.0392 23.2175C18.0608 23.0875 18.1475 23.0117 18.2558 22.9792L18.3425 22.9575C18.505 22.9033 18.6675 22.8058 18.7758 22.665L18.8408 22.6C18.96 22.4483 19.025 22.2533 19.025 22.0583C19.025 21.9067 19.1442 21.7767 19.2958 21.7767H19.3175H19.4258C19.5558 21.7983 19.6858 21.7008 19.7183 21.56V21.5383C19.7508 21.3975 19.8158 21.2567 19.8917 21.1267C19.9458 21.0725 20 21.0617 20.0542 21.105ZM18.5592 20.3033V20.3358L18.5808 20.325C18.5592 20.455 18.505 20.5633 18.3967 20.6717L18.2233 20.845C18.1475 20.91 18.0933 20.9967 18.0608 21.105C18.0283 21.2025 17.9525 21.2783 17.8658 21.2783L17.6492 21.3217C17.5192 21.3433 17.4108 21.43 17.3567 21.5383C17.3025 21.6467 17.1833 21.755 17.0533 21.755H16.5658C16.4358 21.7658 16.3058 21.8092 16.2192 21.9175L16.165 21.9717L15.9808 22.145H15.9592C15.905 22.2317 15.7967 22.2533 15.6883 22.2533L15.1792 22.2208C15.0383 22.2208 14.8975 22.2642 14.7892 22.3508C14.6808 22.4267 14.54 22.4483 14.41 22.3942H14.3775C14.3378 22.3776 14.2971 22.3621 14.2567 22.3467C14.1645 22.3115 14.0736 22.2768 13.9983 22.2317C13.8792 22.1558 13.7383 22.1233 13.63 22.1233H13.4675C13.3267 22.1233 13.1858 22.1342 13.0558 22.1667C12.9258 22.1992 12.7958 22.145 12.7092 22.0367L12.6658 21.9933C12.5575 21.8417 12.4275 21.7008 12.2975 21.5925C12.1675 21.4625 12.0158 21.365 11.8425 21.3108L11.6258 21.2458C11.6042 21.2242 11.5717 21.2242 11.5717 21.2242L11.3983 21.17C11.29 21.1375 11.1817 21.0292 11.1817 20.8992L11.0733 20.4117C11.0517 20.3142 10.9975 20.2275 10.9217 20.1625L10.8783 20.1192C10.835 20.0975 10.7808 20.0542 10.7483 20.0108L10.64 19.9242C10.5599 19.8541 10.4428 19.784 10.3401 19.7225C10.3316 19.7174 10.3232 19.7124 10.315 19.7075L10.0767 19.5992C10.0008 19.5667 9.94667 19.4908 9.94667 19.4042C9.94667 19.3067 9.94667 19.2092 9.96833 19.1225L10.0767 18.5158V18.4942L10.0983 18.3858C10.12 18.31 10.1633 18.245 10.2283 18.2233L10.3367 18.1692C10.3692 18.1692 10.4017 18.1042 10.3692 18.0608C10.3583 18.0283 10.3475 18.0067 10.315 18.0067L10.2717 17.985L9.81667 17.79C9.68667 17.725 9.6325 17.5733 9.68667 17.4325L9.70833 17.3458C9.78417 17.1292 9.81667 16.9125 9.81667 16.6958L9.83833 16.1975C9.83833 16.0675 9.91417 15.9375 10.0225 15.8508C10.1308 15.775 10.2175 15.6558 10.2717 15.5258L10.2933 15.4717C10.3583 15.32 10.4017 15.1575 10.4233 14.995C10.445 14.8325 10.51 14.67 10.6183 14.5617L10.7267 14.4533L10.9433 14.2367L10.9867 14.1825C11.0842 14.0633 11.1708 13.9442 11.225 13.7925C11.29 13.6625 11.4092 13.5758 11.55 13.5758H11.5825C11.6908 13.5758 11.7992 13.6625 11.7992 13.7925V13.825V13.8575C11.7558 14.085 11.7558 14.3125 11.7775 14.5508C11.7883 14.7783 11.8967 14.9842 12.07 15.125L12.2217 15.2658C12.3192 15.3633 12.3733 15.4933 12.3733 15.6233C12.3733 15.775 12.3625 15.9158 12.3192 16.0567L12.2975 16.1217C12.2542 16.3058 12.265 16.49 12.3192 16.6633L12.3408 16.7283C12.4167 16.9342 12.5575 17.1075 12.72 17.2375L12.7742 17.27C12.915 17.3675 13.0558 17.4542 13.2075 17.5192C13.3375 17.5733 13.435 17.7142 13.4675 17.8658L13.5108 18.1583C13.5108 18.4508 13.695 18.6675 13.9442 18.7758L14.0742 18.83C14.2475 18.9167 14.4317 18.9167 14.6158 18.9167C14.7783 18.8842 14.9408 18.9708 15.0167 19.1333L15.0708 19.2417C15.19 19.48 15.385 19.6533 15.645 19.7292L16.1325 19.8917L16.3492 19.9567L16.6092 20.0217C16.8475 20.0867 17.0858 20.13 17.335 20.13H17.8225C17.9092 20.1517 18.0175 20.1517 18.1258 20.13H18.4075C18.4942 20.13 18.5592 20.195 18.5592 20.3033Z" fill="#FF00FF"/>
</svg>
