<svg width="40" height="40" viewBox="0 0 40 40" fill="none" xmlns="http://www.w3.org/2000/svg">
<path fill-rule="evenodd" clip-rule="evenodd" d="M0 20C0 8.95431 8.95431 0 20 0C31.0457 0 40 8.95431 40 20C40 31.0457 31.0457 40 20 40C8.95431 40 0 31.0457 0 20ZM31.9281 15.0522C31.8695 13.7752 31.6666 12.903 31.3703 12.1394C31.0687 11.3388 30.5963 10.6135 29.986 10.014C29.3863 9.40455 28.661 8.93315 27.8606 8.63258C27.097 8.33344 26.2248 8.13052 24.9478 8.0724C23.6707 8.01429 23.2591 8 20 8C16.7409 8 16.3322 8.01381 15.0522 8.0724C13.7723 8.13099 12.903 8.33344 12.1394 8.6302C11.3388 8.93146 10.6134 9.40369 10.014 10.014C9.40455 10.6137 8.93315 11.339 8.63258 12.1394C8.33344 12.903 8.13052 13.7752 8.0724 15.0522C8.01429 16.3293 8 16.7409 8 20C8 23.2591 8.01381 23.6678 8.0724 24.9478C8.13099 26.2277 8.33344 27.097 8.6302 27.8606C8.93146 28.6612 9.40369 29.3866 10.014 29.986C10.6135 30.5963 11.3388 31.0687 12.1394 31.3703C12.9016 31.6666 13.7752 31.8695 15.0522 31.9281C16.3293 31.9867 16.7409 32 20 32C23.2591 32 23.6678 31.9862 24.9478 31.9281C26.2277 31.87 27.097 31.6666 27.8606 31.3703C28.6577 31.0619 29.3817 30.5904 29.986 29.986C30.5904 29.3817 31.0619 28.6577 31.3703 27.8606C31.6666 27.0984 31.8695 26.2248 31.9281 24.9478C31.9867 23.6707 32 23.2591 32 20C32 16.7409 31.9862 16.3322 31.9281 15.0522ZM20 26.1624C18.7812 26.1624 17.5897 25.801 16.5763 25.1239C15.5629 24.4467 14.7731 23.4843 14.3067 22.3583C13.8402 21.2322 13.7182 19.9932 13.956 18.7978C14.1938 17.6024 14.7807 16.5043 15.6425 15.6425C16.5043 14.7807 17.6024 14.1938 18.7978 13.956C19.9932 13.7182 21.2322 13.8402 22.3583 14.3067C23.4843 14.7731 24.4467 15.5629 25.1239 16.5763C25.801 17.5897 26.1624 18.7812 26.1624 20C26.1625 20.8093 26.0031 21.6106 25.6935 22.3583C25.3838 23.106 24.9299 23.7854 24.3576 24.3576C23.7854 24.9299 23.106 25.3838 22.3583 25.6935C21.6106 26.0031 20.8093 26.1625 20 26.1624ZM26.4058 15.0346C26.1209 15.0347 25.8424 14.9503 25.6054 14.7921C25.3685 14.6339 25.1838 14.4089 25.0747 14.1457C24.9656 13.8825 24.937 13.5929 24.9925 13.3134C25.0481 13.034 25.1852 12.7773 25.3866 12.5758C25.5881 12.3743 25.8447 12.237 26.1242 12.1814C26.4036 12.1258 26.6933 12.1543 26.9565 12.2633C27.2197 12.3723 27.4447 12.5569 27.603 12.7938C27.7613 13.0307 27.8458 13.3092 27.8458 13.5942C27.8459 13.7833 27.8087 13.9706 27.7363 14.1454C27.664 14.3201 27.558 14.4789 27.4242 14.6127C27.2905 14.7465 27.1317 14.8526 26.957 14.925C26.7823 14.9974 26.595 15.0346 26.4058 15.0346ZM23.9999 20C23.9999 22.209 22.2091 23.9998 20 23.9998C17.791 23.9998 16.0002 22.209 16.0002 20C16.0002 17.7909 17.791 16.0001 20 16.0001C22.2091 16.0001 23.9999 17.7909 23.9999 20Z" fill="#FF00FF"/>
</svg>
