<svg width="40" height="40" viewBox="0 0 40 40" fill="none" xmlns="http://www.w3.org/2000/svg">
<path fill-rule="evenodd" clip-rule="evenodd" d="M20 0C8.95431 0 0 8.95431 0 20C0 31.0457 8.95431 40 20 40C31.0457 40 40 31.0457 40 20C40 8.95431 31.0457 0 20 0ZM10.357 9.04105C10.4255 9.04105 10.4804 9.03193 10.4804 9.02052C10.4804 9.00688 13.6741 9 20.0206 9C26.367 9 29.5607 9.00688 29.5607 9.02052C29.5607 9.03193 29.6156 9.04105 29.6841 9.04105C29.7526 9.04105 29.8075 9.05016 29.8075 9.06157C29.8075 9.07285 29.8352 9.08209 29.8692 9.08209C29.9031 9.08209 29.9308 9.09132 29.9308 9.10261C29.9308 9.1139 29.9493 9.12313 29.972 9.12313C29.9946 9.12313 30.0131 9.13237 30.0131 9.14366C30.0131 9.15494 30.0408 9.16418 30.0748 9.16418C30.1087 9.16418 30.1364 9.17341 30.1364 9.1847C30.1364 9.19599 30.1529 9.20522 30.173 9.20522C30.1932 9.20522 30.2229 9.22369 30.2393 9.24627C30.2556 9.26884 30.2808 9.28731 30.2954 9.28731C30.31 9.28731 30.419 9.38418 30.5376 9.50255C30.6562 9.62095 30.7533 9.73177 30.7533 9.74882C30.7533 9.7659 30.7625 9.77985 30.7738 9.77985C30.7851 9.77985 30.7944 9.79832 30.7944 9.8209C30.7944 9.84347 30.8036 9.86194 30.815 9.86194C30.8263 9.86194 30.8355 9.88041 30.8355 9.90298C30.8355 9.92556 30.8448 9.94403 30.8561 9.94403C30.8674 9.94403 30.8766 9.9625 30.8766 9.98507C30.8766 10.0076 30.8859 10.0261 30.8972 10.0261C30.9085 10.0261 30.9178 10.0538 30.9178 10.0877C30.9178 10.1215 30.927 10.1493 30.9383 10.1493C30.9496 10.1493 30.9589 10.1862 30.9589 10.2313C30.9589 10.2765 30.9681 10.3134 30.9794 10.3134C30.9931 10.3134 31 13.556 31 20C31 26.444 30.9931 29.6866 30.9794 29.6866C30.9681 29.6866 30.9589 29.7235 30.9589 29.7687C30.9589 29.8138 30.9496 29.8507 30.9383 29.8507C30.927 29.8507 30.9178 29.8785 30.9178 29.9123C30.9178 29.9462 30.9085 29.9739 30.8972 29.9739C30.8859 29.9739 30.8766 29.9923 30.8766 30.0149C30.8766 30.0375 30.8674 30.056 30.8561 30.056C30.8448 30.056 30.8355 30.0744 30.8355 30.097C30.8355 30.1196 30.8263 30.1381 30.815 30.1381C30.8036 30.1381 30.7944 30.1545 30.7944 30.1746C30.7944 30.1947 30.7759 30.2244 30.7533 30.2407C30.7307 30.2569 30.7122 30.2822 30.7122 30.2968C30.7122 30.3113 30.6244 30.4109 30.5171 30.518C30.4098 30.6251 30.308 30.7127 30.2909 30.7127C30.2738 30.7127 30.2598 30.7219 30.2598 30.7332C30.2598 30.7445 30.2433 30.7537 30.2232 30.7537C30.2031 30.7537 30.1733 30.7722 30.157 30.7948C30.1396 30.8189 30.1038 30.8358 30.0702 30.8358C30.0388 30.8358 30.0131 30.8451 30.0131 30.8563C30.0131 30.8676 29.9946 30.8769 29.972 30.8769C29.9493 30.8769 29.9308 30.8861 29.9308 30.8974C29.9308 30.9087 29.8938 30.9179 29.8486 30.9179C29.8034 30.9179 29.7664 30.9271 29.7664 30.9384C29.7664 30.9498 29.7115 30.959 29.643 30.959C29.5745 30.959 29.5196 30.9681 29.5196 30.9795C29.5196 30.9931 26.3259 31 19.9794 31C13.633 31 10.4393 30.9931 10.4393 30.9795C10.4393 30.9681 10.3844 30.959 10.3159 30.959C10.2474 30.959 10.1925 30.9498 10.1925 30.9384C10.1925 30.9271 10.1648 30.9179 10.1308 30.9179C10.0969 30.9179 10.0692 30.9087 10.0692 30.8974C10.0692 30.8861 10.0507 30.8769 10.028 30.8769C10.0054 30.8769 9.98692 30.8676 9.98692 30.8563C9.98692 30.8451 9.95916 30.8358 9.92523 30.8358C9.89131 30.8358 9.86355 30.8266 9.86355 30.8153C9.86355 30.804 9.84708 30.7948 9.82697 30.7948C9.80684 30.7948 9.77705 30.7763 9.76075 30.7537C9.74444 30.7312 9.71915 30.7127 9.70453 30.7127C9.68994 30.7127 9.5902 30.6251 9.48291 30.518C9.37562 30.4109 9.28785 30.3113 9.28785 30.2968C9.28785 30.2822 9.26935 30.2569 9.24673 30.2407C9.22411 30.2244 9.20561 30.1947 9.20561 30.1746C9.20561 30.1545 9.19635 30.1381 9.18505 30.1381C9.17374 30.1381 9.16449 30.1196 9.16449 30.097C9.16449 30.0744 9.15523 30.056 9.14393 30.056C9.13262 30.056 9.12336 30.0375 9.12336 30.0149C9.12336 29.9923 9.11411 29.9739 9.1028 29.9739C9.0915 29.9739 9.08224 29.9462 9.08224 29.9123C9.08224 29.8785 9.07299 29.8507 9.06168 29.8507C9.05037 29.8507 9.04112 29.8138 9.04112 29.7687C9.04112 29.7235 9.03187 29.6866 9.02056 29.6866C9.00689 29.6866 9 26.444 9 20C9 13.556 9.00689 10.3134 9.02056 10.3134C9.03187 10.3134 9.04112 10.2765 9.04112 10.2313C9.04112 10.1862 9.05037 10.1493 9.06168 10.1493C9.07299 10.1493 9.08224 10.1215 9.08224 10.0877C9.08224 10.0538 9.0915 10.0261 9.1028 10.0261C9.11411 10.0261 9.12336 10.0076 9.12336 9.98507C9.12336 9.9625 9.13262 9.94403 9.14393 9.94403C9.15523 9.94403 9.16449 9.92556 9.16449 9.90298C9.16449 9.88041 9.17374 9.86194 9.18505 9.86194C9.19635 9.86194 9.20561 9.8455 9.20561 9.82543C9.20561 9.80534 9.22411 9.7756 9.24673 9.75933C9.26935 9.74305 9.28785 9.71781 9.28785 9.70322C9.28785 9.68865 9.37562 9.5891 9.48291 9.48201C9.5902 9.37492 9.69197 9.28731 9.70908 9.28731C9.72618 9.28731 9.74019 9.27808 9.74019 9.26679C9.74019 9.2555 9.75666 9.24627 9.77676 9.24627C9.79689 9.24627 9.82669 9.2278 9.84299 9.20522C9.86041 9.18113 9.89622 9.16418 9.92978 9.16418C9.96119 9.16418 9.98692 9.15494 9.98692 9.14366C9.98692 9.13237 10.0054 9.12313 10.028 9.12313C10.0507 9.12313 10.0692 9.1139 10.0692 9.10261C10.0692 9.09132 10.1062 9.08209 10.1514 9.08209C10.1966 9.08209 10.2336 9.07285 10.2336 9.06157C10.2336 9.05016 10.2885 9.04105 10.357 9.04105ZM14.2841 12.0784C14.2276 12.0784 14.1813 12.0691 14.1813 12.0578C14.1813 12.0451 14.0717 12.0373 13.8935 12.0373C13.7153 12.0373 13.6056 12.0451 13.6056 12.0578C13.6056 12.0691 13.5593 12.0784 13.5028 12.0784C13.4463 12.0784 13.4 12.0876 13.4 12.0989C13.4 12.1102 13.3722 12.1194 13.3383 12.1194C13.3044 12.1194 13.2766 12.1286 13.2766 12.1399C13.2766 12.1512 13.2489 12.1604 13.215 12.1604C13.181 12.1604 13.1533 12.1697 13.1533 12.181C13.1533 12.1923 13.1348 12.2015 13.1122 12.2015C13.0895 12.2015 13.071 12.2107 13.071 12.222C13.071 12.2333 13.0525 12.2425 13.0299 12.2425C13.0073 12.2425 12.9888 12.2518 12.9888 12.2631C12.9888 12.2743 12.9723 12.2836 12.9522 12.2836C12.9321 12.2836 12.9023 12.3021 12.886 12.3246C12.8697 12.3472 12.8438 12.3657 12.8284 12.3657C12.8131 12.3657 12.765 12.4026 12.7215 12.4478C12.678 12.4929 12.6321 12.5299 12.6194 12.5299C12.6067 12.5299 12.5736 12.5525 12.5458 12.5802C12.518 12.6079 12.4953 12.641 12.4953 12.6537C12.4953 12.6663 12.4583 12.7122 12.4131 12.7556C12.3679 12.799 12.3308 12.847 12.3308 12.8623C12.3308 12.8777 12.3123 12.9035 12.2897 12.9198C12.2671 12.9361 12.2486 12.9658 12.2486 12.9859C12.2486 13.0059 12.2393 13.0224 12.228 13.0224C12.2167 13.0224 12.2075 13.0409 12.2075 13.0634C12.2075 13.086 12.1982 13.1045 12.1869 13.1045C12.1756 13.1045 12.1664 13.1229 12.1664 13.1455C12.1664 13.1681 12.1571 13.1866 12.1458 13.1866C12.1345 13.1866 12.1252 13.2143 12.1252 13.2481C12.1252 13.282 12.116 13.3097 12.1047 13.3097C12.0934 13.3097 12.0841 13.3374 12.0841 13.3713C12.0841 13.4051 12.0749 13.4328 12.0636 13.4328C12.0522 13.4328 12.043 13.479 12.043 13.5354C12.043 13.5919 12.0337 13.6381 12.0224 13.6381C12.0097 13.6381 12.0019 13.7475 12.0019 13.9254C12.0019 14.1032 12.0097 14.2127 12.0224 14.2127C12.0337 14.2127 12.043 14.2589 12.043 14.3153C12.043 14.3717 12.0522 14.4179 12.0636 14.4179C12.0749 14.4179 12.0841 14.4456 12.0841 14.4795C12.0841 14.5133 12.0934 14.541 12.1047 14.541C12.116 14.541 12.1252 14.5688 12.1252 14.6026C12.1252 14.6365 12.1345 14.6642 12.1458 14.6642C12.1571 14.6642 12.1664 14.6826 12.1664 14.7052C12.1664 14.7278 12.1756 14.7463 12.1869 14.7463C12.1982 14.7463 12.2075 14.7647 12.2075 14.7873C12.2075 14.8099 12.2167 14.8284 12.228 14.8284C12.2393 14.8284 12.2486 14.8448 12.2486 14.8649C12.2486 14.885 12.2671 14.9147 12.2897 14.931C12.3123 14.9472 12.3308 14.9733 12.3308 14.9888C12.3308 15.0044 12.3586 15.043 12.3925 15.0746C12.4264 15.1063 12.4542 15.1425 12.4542 15.1552C12.4542 15.1679 12.4956 15.2196 12.5462 15.2701C12.5968 15.3206 12.6486 15.3619 12.6613 15.3619C12.674 15.3619 12.7104 15.3896 12.7421 15.4235C12.7737 15.4574 12.8124 15.4851 12.828 15.4851C12.8436 15.4851 12.8697 15.5035 12.886 15.5261C12.9023 15.5487 12.9321 15.5672 12.9522 15.5672C12.9723 15.5672 12.9888 15.5764 12.9888 15.5877C12.9888 15.599 13.0073 15.6082 13.0299 15.6082C13.0525 15.6082 13.071 15.6174 13.071 15.6287C13.071 15.64 13.0895 15.6493 13.1122 15.6493C13.1348 15.6493 13.1533 15.6585 13.1533 15.6698C13.1533 15.6811 13.181 15.6903 13.215 15.6903C13.2489 15.6903 13.2766 15.6995 13.2766 15.7108C13.2766 15.7221 13.3044 15.7313 13.3383 15.7313C13.3722 15.7313 13.4 15.7406 13.4 15.7519C13.4 15.7632 13.4463 15.7724 13.5028 15.7724C13.5593 15.7724 13.6056 15.7816 13.6056 15.7929C13.6056 15.8056 13.7153 15.8134 13.8935 15.8134C14.0717 15.8134 14.1813 15.8056 14.1813 15.7929C14.1813 15.7816 14.2276 15.7724 14.2841 15.7724C14.3407 15.7724 14.3869 15.7632 14.3869 15.7519C14.3869 15.7406 14.4147 15.7313 14.4486 15.7313C14.4825 15.7313 14.5103 15.7221 14.5103 15.7108C14.5103 15.6995 14.538 15.6903 14.572 15.6903C14.6059 15.6903 14.6336 15.6811 14.6336 15.6698C14.6336 15.6585 14.6521 15.6493 14.6748 15.6493C14.6974 15.6493 14.7159 15.64 14.7159 15.6287C14.7159 15.6174 14.7344 15.6082 14.757 15.6082C14.7796 15.6082 14.7981 15.599 14.7981 15.5877C14.7981 15.5764 14.8146 15.5672 14.8347 15.5672C14.8548 15.5672 14.8846 15.5487 14.9009 15.5261C14.9172 15.5035 14.9431 15.4851 14.9585 15.4851C14.9738 15.4851 15.022 15.4481 15.0654 15.403C15.1089 15.3578 15.1548 15.3209 15.1675 15.3209C15.1803 15.3209 15.2134 15.2982 15.2411 15.2705C15.2689 15.2428 15.2916 15.2098 15.2916 15.1971C15.2916 15.1844 15.3286 15.1385 15.3738 15.0951C15.4191 15.0518 15.4561 15.0037 15.4561 14.9884C15.4561 14.9731 15.4746 14.9472 15.4972 14.931C15.5198 14.9147 15.5383 14.885 15.5383 14.8649C15.5383 14.8448 15.5476 14.8284 15.5589 14.8284C15.5702 14.8284 15.5794 14.8099 15.5794 14.7873C15.5794 14.7647 15.5887 14.7463 15.6 14.7463C15.6113 14.7463 15.6206 14.7278 15.6206 14.7052C15.6206 14.6826 15.6298 14.6642 15.6411 14.6642C15.6524 14.6642 15.6617 14.6365 15.6617 14.6026C15.6617 14.5688 15.6709 14.541 15.6822 14.541C15.6936 14.541 15.7028 14.5133 15.7028 14.4795C15.7028 14.4456 15.7121 14.4179 15.7234 14.4179C15.7347 14.4179 15.7439 14.3717 15.7439 14.3153C15.7439 14.2589 15.7532 14.2127 15.7645 14.2127C15.7772 14.2127 15.785 14.1032 15.785 13.9254C15.785 13.7475 15.7772 13.6381 15.7645 13.6381C15.7532 13.6381 15.7439 13.5919 15.7439 13.5354C15.7439 13.479 15.7347 13.4328 15.7234 13.4328C15.7121 13.4328 15.7028 13.4051 15.7028 13.3713C15.7028 13.3374 15.6936 13.3097 15.6822 13.3097C15.6709 13.3097 15.6617 13.282 15.6617 13.2481C15.6617 13.2143 15.6524 13.1866 15.6411 13.1866C15.6298 13.1866 15.6206 13.1681 15.6206 13.1455C15.6206 13.1229 15.6113 13.1045 15.6 13.1045C15.5887 13.1045 15.5794 13.088 15.5794 13.068C15.5794 13.0479 15.5609 13.0181 15.5383 13.0019C15.5157 12.9856 15.4972 12.9579 15.4972 12.9403C15.4972 12.9227 15.4787 12.895 15.4561 12.8787C15.4335 12.8625 15.415 12.8372 15.415 12.8226C15.415 12.8081 15.3272 12.7085 15.2199 12.6014C15.1126 12.4943 15.0129 12.4067 14.9983 12.4067C14.9837 12.4067 14.9584 12.3882 14.9421 12.3657C14.9258 12.3431 14.898 12.3246 14.8804 12.3246C14.8628 12.3246 14.835 12.3062 14.8187 12.2836C14.8024 12.261 14.7726 12.2425 14.7525 12.2425C14.7324 12.2425 14.7159 12.2333 14.7159 12.222C14.7159 12.2107 14.6881 12.2015 14.6542 12.2015C14.6203 12.2015 14.5925 12.1923 14.5925 12.181C14.5925 12.1697 14.574 12.1604 14.5514 12.1604C14.5288 12.1604 14.5103 12.1512 14.5103 12.1399C14.5103 12.1286 14.4825 12.1194 14.4486 12.1194C14.4147 12.1194 14.3869 12.1102 14.3869 12.0989C14.3869 12.0876 14.3407 12.0784 14.2841 12.0784ZM24.6673 17.0448C24.5713 17.0448 24.5028 17.0362 24.5028 17.0243C24.5028 17.011 24.2698 17.0037 23.8449 17.0037C23.4199 17.0037 23.1869 17.011 23.1869 17.0243C23.1869 17.0355 23.1407 17.0448 23.0841 17.0448C23.0276 17.0448 22.9813 17.054 22.9813 17.0653C22.9813 17.0766 22.9443 17.0858 22.8991 17.0858C22.8538 17.0858 22.8168 17.0951 22.8168 17.1063C22.8168 17.1176 22.7798 17.1269 22.7346 17.1269C22.6893 17.1269 22.6523 17.1361 22.6523 17.1474C22.6523 17.1587 22.6338 17.1679 22.6112 17.1679C22.5886 17.1679 22.5701 17.1771 22.5701 17.1884C22.5701 17.1997 22.5423 17.209 22.5084 17.209C22.4745 17.209 22.4467 17.2182 22.4467 17.2295C22.4467 17.2408 22.419 17.25 22.385 17.25C22.3511 17.25 22.3234 17.2592 22.3234 17.2705C22.3234 17.2818 22.3049 17.291 22.2822 17.291C22.2596 17.291 22.2411 17.3003 22.2411 17.3116C22.2411 17.3229 22.2226 17.3321 22.2 17.3321C22.1774 17.3321 22.1589 17.3413 22.1589 17.3526C22.1589 17.3639 22.1424 17.3731 22.1223 17.3731C22.1022 17.3731 22.0724 17.3916 22.0561 17.4142C22.0398 17.4368 22.01 17.4552 21.9898 17.4552C21.9697 17.4552 21.9533 17.4645 21.9533 17.4757C21.9533 17.487 21.9368 17.4963 21.9167 17.4963C21.8966 17.4963 21.8668 17.5147 21.8505 17.5373C21.8342 17.5599 21.8064 17.5784 21.7888 17.5784C21.7712 17.5784 21.7434 17.5968 21.7271 17.6194C21.7108 17.642 21.6849 17.6604 21.6696 17.6604C21.6542 17.6604 21.6061 17.6974 21.5626 17.7425C21.5192 17.7877 21.4735 17.8246 21.4611 17.8246C21.4487 17.8246 21.3693 17.8937 21.2847 17.9782C21.2001 18.0627 21.1308 18.1419 21.1308 18.1543C21.1308 18.1666 21.0938 18.2122 21.0486 18.2556C21.0034 18.299 20.9664 18.347 20.9664 18.3623C20.9664 18.3777 20.9478 18.4035 20.9252 18.4198C20.9026 18.4361 20.8841 18.4638 20.8841 18.4813C20.8841 18.4989 20.8656 18.5266 20.843 18.5429C20.8204 18.5592 20.8019 18.585 20.8019 18.6002C20.8019 18.6155 20.7886 18.6411 20.7725 18.6572C20.7563 18.6734 20.7378 18.6866 20.7314 18.6866C20.7249 18.6866 20.7196 18.3633 20.7196 17.9683V17.25H19.1364H17.5533V22.4832V27.7164H19.1981H20.843V24.7817C20.843 22.8389 20.8499 21.847 20.8636 21.847C20.8755 21.847 20.8841 21.7786 20.8841 21.6828C20.8841 21.5871 20.8927 21.5187 20.9047 21.5187C20.916 21.5187 20.9252 21.4725 20.9252 21.416C20.9252 21.3596 20.9345 21.3134 20.9458 21.3134C20.9571 21.3134 20.9664 21.2765 20.9664 21.2313C20.9664 21.1862 20.9756 21.1493 20.9869 21.1493C20.9982 21.1493 21.0075 21.1215 21.0075 21.0877C21.0075 21.0538 21.0167 21.0261 21.028 21.0261C21.0393 21.0261 21.0486 20.9984 21.0486 20.9646C21.0486 20.9307 21.0578 20.903 21.0692 20.903C21.0805 20.903 21.0897 20.8845 21.0897 20.8619C21.0897 20.8394 21.099 20.8209 21.1103 20.8209C21.1216 20.8209 21.1308 20.8024 21.1308 20.7799C21.1308 20.7573 21.1401 20.7388 21.1514 20.7388C21.1627 20.7388 21.172 20.7203 21.172 20.6978C21.172 20.6752 21.1812 20.6567 21.1925 20.6567C21.2038 20.6567 21.2131 20.642 21.2131 20.6239C21.2131 20.6059 21.2408 20.5652 21.2748 20.5336C21.3087 20.502 21.3364 20.4657 21.3364 20.4531C21.3364 20.4404 21.3871 20.3795 21.4491 20.3176C21.511 20.2558 21.5738 20.2052 21.5885 20.2052C21.6032 20.2052 21.6286 20.1868 21.6449 20.1642C21.6612 20.1416 21.691 20.1231 21.7111 20.1231C21.7312 20.1231 21.7477 20.1139 21.7477 20.1026C21.7477 20.0913 21.7662 20.0821 21.7888 20.0821C21.8114 20.0821 21.8299 20.0729 21.8299 20.0616C21.8299 20.0503 21.8484 20.041 21.871 20.041C21.8936 20.041 21.9121 20.0318 21.9121 20.0205C21.9121 20.0092 21.9307 20 21.9533 20C21.9759 20 21.9944 19.9908 21.9944 19.9795C21.9944 19.9682 22.0222 19.959 22.0561 19.959C22.09 19.959 22.1178 19.9497 22.1178 19.9384C22.1178 19.9271 22.164 19.9179 22.2206 19.9179C22.2771 19.9179 22.3234 19.9087 22.3234 19.8974C22.3234 19.8851 22.4056 19.8769 22.529 19.8769C22.6523 19.8769 22.7346 19.8687 22.7346 19.8563C22.7346 19.8451 22.7531 19.8358 22.7757 19.8358C22.7983 19.8358 22.8168 19.8451 22.8168 19.8563C22.8168 19.8687 22.8991 19.8769 23.0224 19.8769C23.1458 19.8769 23.228 19.8851 23.228 19.8974C23.228 19.9087 23.265 19.9179 23.3103 19.9179C23.3555 19.9179 23.3925 19.9271 23.3925 19.9384C23.3925 19.9497 23.4203 19.959 23.4542 19.959C23.4881 19.959 23.5159 19.9682 23.5159 19.9795C23.5159 19.9908 23.5344 20 23.557 20C23.5796 20 23.5981 20.0092 23.5981 20.0205C23.5981 20.0318 23.6166 20.041 23.6393 20.041C23.6619 20.041 23.6804 20.0503 23.6804 20.0616C23.6804 20.0729 23.6944 20.0821 23.7115 20.0821C23.7286 20.0821 23.8212 20.1605 23.9171 20.2562C24.0131 20.352 24.0916 20.4423 24.0916 20.4569C24.0916 20.4715 24.1101 20.4968 24.1327 20.5131C24.1553 20.5293 24.1738 20.5591 24.1738 20.5792C24.1738 20.5992 24.1831 20.6157 24.1944 20.6157C24.2057 20.6157 24.215 20.6341 24.215 20.6567C24.215 20.6793 24.2242 20.6978 24.2355 20.6978C24.2468 20.6978 24.2561 20.7255 24.2561 20.7593C24.2561 20.7932 24.2653 20.8209 24.2766 20.8209C24.2879 20.8209 24.2972 20.8486 24.2972 20.8825C24.2972 20.9163 24.3064 20.944 24.3178 20.944C24.3291 20.944 24.3383 20.9717 24.3383 21.0056C24.3383 21.0395 24.3476 21.0672 24.3589 21.0672C24.3702 21.0672 24.3794 21.1133 24.3794 21.1698C24.3794 21.2262 24.3887 21.2724 24.4 21.2724C24.4114 21.2724 24.4206 21.3271 24.4206 21.3955C24.4206 21.4639 24.4297 21.5187 24.4411 21.5187C24.4538 21.5187 24.4617 21.6281 24.4617 21.806C24.4617 21.9838 24.4695 22.0933 24.4822 22.0933C24.4959 22.0933 24.5028 23.0441 24.5028 24.9049V27.7164H26.1271H27.7514V24.4328C27.7514 22.2575 27.7445 21.1493 27.7308 21.1493C27.7182 21.1493 27.7103 21.0466 27.7103 20.8825C27.7103 20.7183 27.7024 20.6157 27.6897 20.6157C27.6777 20.6157 27.6692 20.5473 27.6692 20.4515C27.6692 20.3557 27.6606 20.2873 27.6486 20.2873C27.6372 20.2873 27.628 20.2326 27.628 20.1642C27.628 20.0958 27.6189 20.041 27.6075 20.041C27.5962 20.041 27.5869 19.9949 27.5869 19.9384C27.5869 19.882 27.5777 19.8358 27.5664 19.8358C27.555 19.8358 27.5458 19.7896 27.5458 19.7332C27.5458 19.6768 27.5365 19.6306 27.5252 19.6306C27.5139 19.6306 27.5047 19.5937 27.5047 19.5485C27.5047 19.5034 27.4954 19.4664 27.4841 19.4664C27.4728 19.4664 27.4636 19.4387 27.4636 19.4049C27.4636 19.371 27.4543 19.3433 27.443 19.3433C27.4317 19.3433 27.4224 19.3156 27.4224 19.2817C27.4224 19.2479 27.4132 19.2201 27.4019 19.2201C27.3906 19.2201 27.3813 19.1924 27.3813 19.1586C27.3813 19.1247 27.3721 19.097 27.3607 19.097C27.3494 19.097 27.3402 19.0693 27.3402 19.0354C27.3402 19.0016 27.3309 18.9739 27.3196 18.9739C27.3083 18.9739 27.2991 18.9554 27.2991 18.9328C27.2991 18.9103 27.2898 18.8918 27.2785 18.8918C27.2672 18.8918 27.2579 18.8733 27.2579 18.8507C27.2579 18.8282 27.2487 18.8097 27.2374 18.8097C27.2261 18.8097 27.2168 18.7912 27.2168 18.7687C27.2168 18.7461 27.2076 18.7276 27.1963 18.7276C27.185 18.7276 27.1757 18.7091 27.1757 18.6866C27.1757 18.664 27.1664 18.6455 27.1551 18.6455C27.1438 18.6455 27.1346 18.6271 27.1346 18.6045C27.1346 18.5819 27.1253 18.5634 27.114 18.5634C27.1027 18.5634 27.0935 18.547 27.0935 18.5269C27.0935 18.5068 27.075 18.4771 27.0523 18.4608C27.0297 18.4445 27.0112 18.4168 27.0112 18.3993C27.0112 18.3817 26.9927 18.354 26.9701 18.3377C26.9475 18.3214 26.929 18.2954 26.929 18.2798C26.929 18.2643 26.9012 18.2257 26.8673 18.194C26.8334 18.1624 26.8056 18.1262 26.8056 18.1136C26.8056 18.101 26.7364 18.0216 26.6517 17.9372C26.5671 17.8527 26.4877 17.7836 26.4754 17.7836C26.463 17.7836 26.4173 17.7466 26.3738 17.7015C26.3304 17.6563 26.2823 17.6194 26.2669 17.6194C26.2515 17.6194 26.2257 17.6009 26.2093 17.5784C26.193 17.5558 26.1632 17.5373 26.1431 17.5373C26.123 17.5373 26.1065 17.5281 26.1065 17.5168C26.1065 17.5055 26.0901 17.4963 26.07 17.4963C26.0498 17.4963 26.02 17.4778 26.0037 17.4552C25.9874 17.4326 25.9576 17.4142 25.9375 17.4142C25.9174 17.4142 25.9009 17.4049 25.9009 17.3937C25.9009 17.3824 25.8824 17.3731 25.8598 17.3731C25.8372 17.3731 25.8187 17.3639 25.8187 17.3526C25.8187 17.3413 25.7909 17.3321 25.757 17.3321C25.7231 17.3321 25.6953 17.3229 25.6953 17.3116C25.6953 17.3003 25.6768 17.291 25.6542 17.291C25.6316 17.291 25.6131 17.2818 25.6131 17.2705C25.6131 17.2592 25.5853 17.25 25.5514 17.25C25.5175 17.25 25.4897 17.2408 25.4897 17.2295C25.4897 17.2182 25.462 17.209 25.428 17.209C25.3941 17.209 25.3664 17.1997 25.3664 17.1884C25.3664 17.1771 25.3293 17.1679 25.2841 17.1679C25.2389 17.1679 25.2019 17.1587 25.2019 17.1474C25.2019 17.1361 25.1649 17.1269 25.1196 17.1269C25.0744 17.1269 25.0374 17.1176 25.0374 17.1063C25.0374 17.0951 24.9911 17.0858 24.9346 17.0858C24.878 17.0858 24.8318 17.0766 24.8318 17.0653C24.8318 17.0533 24.7632 17.0448 24.6673 17.0448ZM15.5383 27.7164V22.4832V17.25H13.8935H12.2486V22.4832V27.7164H13.8935H15.5383Z" fill="#FF00FF"/>
</svg>
