<svg width="40" height="40" viewBox="0 0 40 40" fill="none" xmlns="http://www.w3.org/2000/svg">
<g clip-path="url(#clip0_822_205)">
<path fill-rule="evenodd" clip-rule="evenodd" d="M40 20C40 31.0457 31.0457 40 20 40C8.95431 40 0 31.0457 0 20C0 8.95431 8.95431 0 20 0C31.0457 0 40 8.95431 40 20ZM23.8145 9.00143C25.7943 9.34333 27.688 9.94029 29.4538 10.7505C29.4691 10.7571 29.4822 10.7681 29.4898 10.7835C32.6185 15.3855 34.1638 20.5767 33.5861 26.5529C33.5839 26.5782 33.5708 26.6013 33.5501 26.6167C31.1803 28.357 28.8848 29.4135 26.621 30.1138C26.585 30.1248 26.5457 30.1116 26.5238 30.0808C26.0007 29.353 25.5257 28.5856 25.1096 27.7798C25.0856 27.7326 25.1074 27.6754 25.1566 27.6567C25.9112 27.372 26.6287 27.0311 27.3188 26.6277C27.3734 26.5958 27.3767 26.5177 27.3265 26.4803C27.1802 26.3715 27.0349 26.2572 26.8962 26.1428C26.87 26.122 26.8351 26.1176 26.8056 26.1318C22.3249 28.202 17.4161 28.202 12.8819 26.1318C12.8524 26.1187 12.8175 26.1231 12.7924 26.1439C12.6537 26.2583 12.5084 26.3715 12.3632 26.4803C12.313 26.5177 12.3173 26.5958 12.3719 26.6277C13.0621 27.0234 13.7796 27.372 14.5331 27.6578C14.5822 27.6765 14.6052 27.7326 14.5811 27.7798C14.1738 28.5868 13.6988 29.3541 13.1659 30.0819C13.1429 30.1116 13.1047 30.1248 13.0687 30.1138C10.8158 29.4135 8.52028 28.357 6.15053 26.6167C6.13087 26.6013 6.11668 26.5771 6.11449 26.5518C5.63181 21.3826 6.61574 16.1484 10.2075 10.7824C10.2162 10.7681 10.2293 10.7571 10.2446 10.7505C12.0116 9.9392 13.9052 9.34224 15.884 9.00143C15.92 8.99594 15.956 9.01243 15.9746 9.04431C16.2192 9.47745 16.4988 10.0327 16.6877 10.4867C18.7736 10.1679 20.8921 10.1679 23.0216 10.4867C23.2105 10.0425 23.4803 9.47745 23.7238 9.04431C23.7424 9.01133 23.7784 8.99484 23.8145 9.00143ZM12.7684 20.6119C12.7684 22.151 13.8932 23.4043 15.2583 23.4043C16.6451 23.4043 17.7481 22.151 17.7481 20.6119C17.77 19.0838 16.656 17.8195 15.2583 17.8195C13.8713 17.8195 12.7684 19.0728 12.7684 20.6119ZM21.9744 20.6119C21.9744 22.151 23.0992 23.4043 24.4642 23.4043C25.862 23.4043 26.9541 22.151 26.9541 20.6119C26.9759 19.0838 25.862 17.8195 24.4642 17.8195C23.0773 17.8195 21.9744 19.0728 21.9744 20.6119Z" fill="#FF00FF"/>
</g>
<defs>
<clipPath id="clip0_822_205">
<rect width="40" height="40" fill="white"/>
</clipPath>
</defs>
</svg>
