<svg width="40" height="40" viewBox="0 0 40 40" fill="none" xmlns="http://www.w3.org/2000/svg">
<path fill-rule="evenodd" clip-rule="evenodd" d="M20 0C8.95431 0 0 8.95431 0 20C0 31.0457 8.95431 40 20 40C31.0457 40 40 31.0457 40 20C40 8.95431 31.0457 0 20 0ZM16.8954 12.1869C16.2974 12.0748 15.662 12 14.9706 12H8V26.7634H15.1575C15.8178 26.7634 16.4594 26.6825 17.0823 26.5205C17.7177 26.3585 18.2783 26.1031 18.7642 25.7543C19.2501 25.4179 19.6426 24.9694 19.9416 24.4275C20.2281 23.8793 20.3714 23.2314 20.3714 22.4839C20.3714 21.562 20.1471 20.7709 19.6986 20.1106C19.2501 19.4627 18.5711 19.008 17.6616 18.7463C18.3344 18.4224 18.839 18.0175 19.1754 17.5316C19.5118 17.0333 19.6799 16.4103 19.6799 15.6628C19.6799 14.9714 19.5678 14.3921 19.3436 13.9249C19.1068 13.4639 18.7829 13.0901 18.3718 12.8036C17.9607 12.517 17.4685 12.3115 16.8954 12.1869ZM15.9797 17.5503C15.606 17.8369 15.1326 17.9801 14.5595 17.9801H11.2704V14.5229H14.2978C14.5968 14.5229 14.8772 14.5416 15.1388 14.5976C15.4129 14.6475 15.6496 14.7347 15.8489 14.8593C16.0607 14.9714 16.2289 15.1396 16.3535 15.3638C16.4781 15.5881 16.5404 15.8746 16.5404 16.2235C16.5404 16.8402 16.3535 17.2887 15.9797 17.5503ZM15.6434 24.1658C15.3568 24.2281 15.0516 24.2593 14.7276 24.2593H11.2704V20.1853H14.8024C15.5001 20.1853 16.0607 20.3473 16.4843 20.6712C16.9204 21.0076 17.1384 21.5495 17.1384 22.297C17.1384 22.6957 17.0699 23.0196 16.9328 23.2688C16.802 23.5118 16.6338 23.7173 16.4096 23.8481C16.1853 23.9976 15.9237 24.1098 15.6434 24.1658ZM25.006 24.2032C25.4421 24.6392 26.0712 24.8573 26.8935 24.8573C27.4915 24.8573 28.0023 24.7078 28.4259 24.4087C28.8495 24.1097 29.1111 23.792 29.2108 23.4557H31.8084C31.3786 24.7451 30.7619 25.6608 29.9022 26.2215C29.0426 26.7634 28.0148 27.0437 26.8001 27.0437C25.9529 27.0437 25.1929 26.9129 24.5201 26.6513C23.8474 26.371 23.268 25.9972 22.8008 25.4926C22.3274 24.9943 21.9599 24.4025 21.6983 23.7173C21.4491 23.0196 21.3245 22.2596 21.3245 21.4374C21.3245 20.64 21.4553 19.8925 21.7169 19.1948C21.9786 18.5034 22.3523 17.9054 22.8382 17.4008C23.3241 16.9024 23.9034 16.51 24.5762 16.2234C25.2365 15.9244 25.9778 15.7749 26.8001 15.7749C27.7095 15.7749 28.5007 15.9556 29.1734 16.3169C29.8462 16.6657 30.4006 17.1329 30.8366 17.7185C31.2727 18.3165 31.5904 18.9955 31.7897 19.7555C31.9766 20.5154 32.0389 21.3066 31.9766 22.1288H24.2772C24.2772 22.9698 24.5575 23.7734 25.006 24.2032ZM28.3698 18.5968C28.0148 18.2044 27.4354 17.9988 26.7066 17.9988C26.2456 17.9988 25.8594 18.0798 25.548 18.2417C25.2365 18.4037 24.9873 18.5968 24.8004 18.8211C24.6136 19.0578 24.4828 19.3132 24.408 19.5873C24.3332 19.8364 24.2896 20.0669 24.2772 20.2787H29.0426C28.9865 19.5312 28.7249 18.9893 28.3698 18.5968ZM29.6594 14.4481V12.9905H23.6793V14.4481H29.6594Z" fill="#FF00FF"/>
</svg>
